# xmcd
#
# Track frame offsets: 
#        150
#        17993
#        39536
#        55582
#        74017
#        85948
#        104836
#        123830
#        142094
#        158364
#        175348
#        192334
#        207830
#        226342
#        246533
#        262628
#        281942
#        299228
#        320968
#        336788
#
# Disc length: 4721 seconds
#
# Revision: 0
# Processed by: cddbd v1.5.2PL0 Copyright (c) Steve Scherf et al.
# Submitted via: ExactAudioCopy v1.1
#
DISCID=3e126f14
DTITLE=Various Artist - Top 40 - Foute Hits - The Ultimate Top 40 Collection 
DTITLE=CD 2
DYEAR=2017
DGENRE=Pop
TTITLE0=Boney M - Hooray! Hooray! It's A Holi-Holiday
TTITLE1=Guus Meeuwis and Vagant - Het Is Een Nacht... (Levensecht) (Live
TTITLE1=Versie)
TTITLE2=Las Ketchup - The Ketchup Song (Aserejé)
TTITLE3=Wham! - I'm Your Man
TTITLE4=Bucks Fizz - Making Your Mind Up
TTITLE5=Billy Ocean - Loverboy
TTITLE6=2 Brothers On The 4th Floor - Never Alone
TTITLE7=Ricky Martin - Livin' La Vida Loca
TTITLE8=Britney Spears - Born To Make You Happy
TTITLE9=Modern Talking - Cheri, Cheri Lady
TTITLE10=K3 - Oya Lélé
TTITLE11=Rick Astley - Together Forever
TTITLE12=Dolly Dots - What A Night
TTITLE13=New Kids On The Block - Step By Step
TTITLE14=Kabouter Plop - Kabouterdans (The Groovy Dance Mix)
TTITLE15=Dan Hartman - We Are The Young
TTITLE16=The Pointer Sisters - I'm So Excited
TTITLE17=The Jacksons - Lovely One
TTITLE18=Solid Harmonie - I Want You To Want Me
TTITLE19=Patrick Swayze Feat. Wendy Fraser - She's Like The Wind
EXTD=
EXTT0=
EXTT1=
EXTT2=
EXTT3=
EXTT4=
EXTT5=
EXTT6=
EXTT7=
EXTT8=
EXTT9=
EXTT10=
EXTT11=
EXTT12=
EXTT13=
EXTT14=
EXTT15=
EXTT16=
EXTT17=
EXTT18=
EXTT19=
PLAYORDER=
